<svg width="31" height="30" viewBox="0 0 31 30" fill="none" xmlns="http://www.w3.org/2000/svg">
<g clip-path="url(#clip0_315_1100)">
<path d="M8.87494 0.788809C8.87494 0.167499 8.37126 -0.336182 7.74995 -0.336182C7.12864 -0.336182 6.62496 0.167499 6.62496 0.788809V3.15768C4.46598 3.33055 3.04864 3.75484 2.00735 4.79613C0.966057 5.83742 0.54177 7.25476 0.368896 9.41374H30.1308C29.958 7.25476 29.5337 5.83742 28.4924 4.79613C27.4511 3.75484 26.0338 3.33055 23.8748 3.15768V0.788809C23.8748 0.167499 23.3711 -0.336182 22.7498 -0.336182C22.1285 -0.336182 21.6248 0.167499 21.6248 0.788809V3.05814C20.6269 3.03879 19.5084 3.03879 18.2499 3.03879H12.2499C10.9914 3.03879 9.87284 3.03879 8.87494 3.05814V0.788809Z" fill="#FF0000"/>
<path fill-rule="evenodd" clip-rule="evenodd" d="M0.250244 15.0388C0.250244 13.7803 0.250244 12.6618 0.269594 11.6638H30.2307C30.25 12.6618 30.25 13.7803 30.25 15.0388V18.0388C30.25 23.6955 30.25 26.5241 28.4926 28.2813C26.7354 30.0387 23.9069 30.0387 18.2501 30.0387H12.2501C6.59333 30.0387 3.76494 30.0387 2.00759 28.2813C0.250244 26.5241 0.250244 23.6955 0.250244 18.0388V15.0388ZM22.7501 18.0388C23.5785 18.0388 24.2501 17.3672 24.2501 16.5388C24.2501 15.7103 23.5785 15.0388 22.7501 15.0388C21.9216 15.0388 21.2501 15.7103 21.2501 16.5388C21.2501 17.3672 21.9216 18.0388 22.7501 18.0388ZM22.7501 24.0387C23.5785 24.0387 24.2501 23.3672 24.2501 22.5387C24.2501 21.7103 23.5785 21.0387 22.7501 21.0387C21.9216 21.0387 21.2501 21.7103 21.2501 22.5387C21.2501 23.3672 21.9216 24.0387 22.7501 24.0387ZM16.7501 16.5388C16.7501 17.3672 16.0786 18.0388 15.2501 18.0388C14.4217 18.0388 13.7501 17.3672 13.7501 16.5388C13.7501 15.7103 14.4217 15.0388 15.2501 15.0388C16.0786 15.0388 16.7501 15.7103 16.7501 16.5388ZM16.7501 22.5387C16.7501 23.3672 16.0786 24.0387 15.2501 24.0387C14.4217 24.0387 13.7501 23.3672 13.7501 22.5387C13.7501 21.7103 14.4217 21.0387 15.2501 21.0387C16.0786 21.0387 16.7501 21.7103 16.7501 22.5387ZM7.75019 18.0388C8.5786 18.0388 9.25017 17.3672 9.25017 16.5388C9.25017 15.7103 8.5786 15.0388 7.75019 15.0388C6.92177 15.0388 6.2502 15.7103 6.2502 16.5388C6.2502 17.3672 6.92177 18.0388 7.75019 18.0388ZM7.75019 24.0387C8.5786 24.0387 9.25017 23.3672 9.25017 22.5387C9.25017 21.7103 8.5786 21.0387 7.75019 21.0387C6.92177 21.0387 6.2502 21.7103 6.2502 22.5387C6.2502 23.3672 6.92177 24.0387 7.75019 24.0387Z" fill="#FF0000"/>
</g>
<defs>
<clipPath id="clip0_315_1100">
<rect width="30" height="30" fill="white" transform="translate(0.25)"/>
</clipPath>
</defs>
</svg>
