<svg width="31" height="30" viewBox="0 0 31 30" fill="none" xmlns="http://www.w3.org/2000/svg">
<g clip-path="url(#clip0_315_1111)">
<path d="M14.625 -0.000488281C8.2971 0.00567705 5.02306 0.118888 2.94598 2.19598C0.868888 4.27306 0.755677 7.5471 0.749512 13.875H8.12019C7.59371 13.2173 7.20033 12.4416 6.98582 11.5836C6.1784 8.35386 9.10386 5.4284 12.3336 6.23582C13.1916 6.45033 13.9673 6.84371 14.625 7.37019V-0.000488281Z" fill="#FF0000"/>
<path d="M0.749512 16.1248C0.755677 22.4525 0.868888 25.7265 2.94598 27.8036C5.02306 29.8806 8.2971 29.9939 14.625 30.0001V18.1853C13.4554 20.5213 11.0398 22.1251 8.24956 22.1251C7.62821 22.1251 7.1245 21.6214 7.1245 21C7.1245 20.3787 7.62821 19.875 8.24956 19.875C10.5549 19.875 12.4865 18.2748 12.9944 16.1248H0.749512Z" fill="#FF0000"/>
<path d="M16.8748 30.0001C23.2025 29.9939 26.4765 29.8806 28.5536 27.8036C30.6306 25.7265 30.7439 22.4525 30.7501 16.1248H18.5052C19.0131 18.2748 20.9448 19.875 23.2501 19.875C23.8714 19.875 24.3752 20.3787 24.3752 21C24.3752 21.6214 23.8714 22.1251 23.2501 22.1251C20.4598 22.1251 18.0442 20.5213 16.8748 18.1853V30.0001Z" fill="#FF0000"/>
<path d="M30.7501 13.8747C30.7439 7.54685 30.6306 4.27282 28.5536 2.19573C26.4765 0.118644 23.2025 0.00543291 16.8748 -0.000732422V7.36995C17.5324 6.84346 18.3081 6.45008 19.166 6.23557C22.3958 5.42815 25.3213 8.35361 24.5138 11.5833C24.2993 12.4414 23.9059 13.2171 23.3794 13.8747H30.7501Z" fill="#FF0000"/>
<path d="M11.7876 8.4185C13.455 8.83534 14.6247 10.3335 14.6247 12.0521V13.8747H12.8021C11.0835 13.8747 9.58534 12.705 9.1685 11.0376C8.77306 9.45582 10.2058 8.02306 11.7876 8.4185Z" fill="#FF0000"/>
<path d="M16.8748 12.0521V13.8747H18.6972C20.4158 13.8747 21.914 12.705 22.3309 11.0376C22.7263 9.45582 21.2935 8.02306 19.7119 8.4185C18.0444 8.83534 16.8748 10.3335 16.8748 12.0521Z" fill="#FF0000"/>
</g>
<defs>
<clipPath id="clip0_315_1111">
<rect width="30" height="30" fill="white" transform="translate(0.75)"/>
</clipPath>
</defs>
</svg>
