<svg width="23" height="30" viewBox="0 0 23 30" fill="none" xmlns="http://www.w3.org/2000/svg">
<path fill-rule="evenodd" clip-rule="evenodd" d="M19.4931 20.3003C21.0516 17.6286 22.2351 14.828 22.4929 11.6876C22.4619 11.3772 22.4398 11.0668 22.4179 10.7573C22.3734 10.1319 22.3293 9.51006 22.2117 8.89867C21.0399 3.14511 15.8371 -0.628107 10.0483 0.0866949C4.41196 0.77806 0.228616 5.88713 0.521567 11.6759C0.615311 13.5976 1.15434 15.4022 1.93945 17.1482C4.01355 21.7768 7.08368 25.7258 10.5054 29.417C11.2319 30.1904 11.6772 30.1904 12.4154 29.4404C15.134 26.6632 17.5362 23.6517 19.4931 20.3003ZM12.7843 7.79909L12.932 8.06369C13.0943 8.35424 13.1755 8.49943 13.3019 8.59528C13.4285 8.69113 13.586 8.72683 13.9012 8.79793L14.188 8.86273L14.1891 8.86298C15.2973 9.11332 15.8513 9.23847 15.9833 9.66178C16.1151 10.0851 15.7374 10.5261 14.9819 11.4081L14.9813 11.4088L14.7857 11.6371C14.5708 11.8878 14.4634 12.0132 14.4151 12.1683C14.3668 12.3234 14.383 12.4906 14.4155 12.8253L14.4451 13.1298L14.4451 13.1298C14.5594 14.3071 14.6165 14.8957 14.2712 15.1575C13.9258 15.4191 13.4066 15.1806 12.3685 14.7034L12.0998 14.58C11.8048 14.4444 11.6572 14.3766 11.5009 14.3766C11.3446 14.3766 11.197 14.4444 10.9019 14.58L10.6333 14.7034C9.59513 15.1806 9.07598 15.4191 8.73053 15.1575C8.38524 14.8957 8.44238 14.3071 8.55668 13.1298L8.55669 13.1298L8.58624 12.8253C8.61878 12.4906 8.63498 12.3234 8.58669 12.1683C8.53839 12.0132 8.43091 11.8878 8.21608 11.6371L8.02051 11.4088L8.02024 11.4085C7.26444 10.5263 6.88656 10.0852 7.01846 9.66178C7.15032 9.23848 7.70442 9.11332 8.81261 8.863L8.81378 8.86273L9.10058 8.79793C9.41573 8.72683 9.57323 8.69113 9.69983 8.59528C9.82628 8.49943 9.90743 8.35424 10.0697 8.06369L10.2175 7.79909L10.2178 7.7985C10.7886 6.77641 11.0741 6.26535 11.5009 6.26535C11.9277 6.26535 12.2131 6.7764 12.7839 7.79849L12.7843 7.79909Z" fill="#FF0000"/>
</svg>
