<svg width="17" height="16" viewBox="0 0 17 16" fill="none" xmlns="http://www.w3.org/2000/svg">
<path d="M2.491 16C2.03033 16 1.646 15.846 1.338 15.538C1.03 15.23 0.875667 14.8453 0.875 14.384V1.616C0.875 1.15533 1.02933 0.771 1.338 0.463C1.64667 0.155 2.031 0.000666667 2.491 0H15.26C15.72 0 16.1043 0.154333 16.413 0.463C16.7217 0.771667 16.8757 1.156 16.875 1.616V14.385C16.875 14.845 16.721 15.2293 16.413 15.538C16.105 15.8467 15.7203 16.0007 15.259 16H2.491ZM2.491 15H15.26C15.4133 15 15.5543 14.936 15.683 14.808C15.8117 14.68 15.8757 14.5387 15.875 14.384V1.616C15.875 1.462 15.811 1.32067 15.683 1.192C15.555 1.06333 15.4137 0.999333 15.259 1H2.491C2.337 1 2.19567 1.064 2.067 1.192C1.93833 1.32 1.87433 1.46133 1.875 1.616V14.385C1.875 14.5383 1.939 14.6793 2.067 14.808C2.195 14.9367 2.336 15.0007 2.49 15M6.392 11.558L8.875 10.052L11.358 11.558L10.698 8.733L12.894 6.848L10.008 6.592L8.875 3.942L7.742 6.592L4.856 6.848L7.052 8.733L6.392 11.558Z" fill="black"/>
</svg>
