<svg width="17" height="16" viewBox="0 0 17 16" fill="none" xmlns="http://www.w3.org/2000/svg">
<path d="M2.491 0C2.03033 0 1.646 0.154 1.338 0.462C1.03 0.77 0.875667 1.15467 0.875 1.616V14.384C0.875 14.8447 1.02933 15.229 1.338 15.537C1.64667 15.845 2.031 15.9993 2.491 16H12.452L16.875 11.577V1.615C16.875 1.155 16.721 0.770666 16.413 0.462C16.105 0.153334 15.7203 -0.000667572 15.259 0H2.491ZM2.491 1H15.26C15.4393 1 15.5867 1.05767 15.702 1.173C15.8173 1.28833 15.875 1.43567 15.875 1.615V11H11.875V15H2.491C2.311 15 2.16333 14.9423 2.048 14.827C1.93267 14.7117 1.875 14.564 1.875 14.384V1.615C1.875 1.43567 1.93267 1.28833 2.048 1.173C2.16333 1.05767 2.311 1 2.491 1ZM4.375 4H13.375V5H4.375V4ZM4.375 11H8.875V12H4.375V11ZM4.375 7.5H13.375V8.5H4.375V7.5Z" fill="black"/>
</svg>
