<svg width="19" height="16" viewBox="0 0 19 16" fill="none" xmlns="http://www.w3.org/2000/svg">
<path opacity="0.4" d="M7.0241 0.695312L9.74488 8.3474H3.77734L7.0241 0.695312ZM15.4657 8.3474H9.74488L12.2189 15.3038L15.4657 8.3474Z" fill="black"/>
<path d="M18.715 8.34791C18.715 8.53241 18.6466 8.70935 18.5248 8.83981C18.4031 8.97027 18.2379 9.04356 18.0657 9.04356H15.8692L12.8027 15.6157C12.7487 15.7312 12.6657 15.8284 12.5631 15.8963C12.4604 15.9642 12.3422 16.0001 12.2215 16H12.189C12.0631 15.9933 11.9417 15.9475 11.8396 15.8681C11.7376 15.7888 11.6593 15.6793 11.6144 15.553L6.97395 2.50102L4.37087 8.63574C4.31929 8.7573 4.23616 8.86039 4.13137 8.93271C4.02659 9.00502 3.9046 9.0435 3.77996 9.04356H1.18255C1.01034 9.04356 0.84517 8.97027 0.723393 8.83981C0.601617 8.70935 0.533203 8.53241 0.533203 8.34791C0.533203 8.16342 0.601617 7.98648 0.723393 7.85602C0.84517 7.72556 1.01034 7.65227 1.18255 7.65227H3.36194L6.4358 0.408004C6.48879 0.282993 6.57513 0.177577 6.68394 0.105033C6.79275 0.0324886 6.91917 -0.00393916 7.04727 0.000337696C7.17537 0.00461455 7.29942 0.0494047 7.4038 0.129067C7.50818 0.208729 7.58823 0.3197 7.63385 0.448004L12.3019 13.5783L14.8871 8.03835C14.9409 7.92245 15.0237 7.82492 15.1264 7.75671C15.2291 7.68851 15.3475 7.65234 15.4683 7.65227H18.0657C18.2379 7.65227 18.4031 7.72556 18.5248 7.85602C18.6466 7.98648 18.715 8.16342 18.715 8.34791Z" fill="black"/>
</svg>
